<svg xmlns="http://www.w3.org/2000/svg" fill="none" viewBox="0 0 24 24" id="Git-Pull-Request--Streamline-Ionic-Filled" height="24" width="24">
  <desc>
    Git Pull Request Streamline Icon: https://streamlinehq.com
  </desc>
  <path fill="#e3e3e3" d="M8.7559 4.29435c0.00035 -0.5695 -0.14925 -1.12905 -0.4338 -1.6224 -0.2845 -0.49335 -0.6939 -0.9031 -1.187 -1.18805 -0.4931 -0.28495 -1.0525 -0.4351 -1.622 -0.4353 -0.5695 -0.0002 -1.129 0.14955 -1.6223 0.43415C3.3975 1.7674 2.98785 2.17685 2.703 2.67c-0.28485 0.49315 -0.43485 1.0526 -0.43495 1.6221 -0.00005 0.5695 0.1498 1.12895 0.4345 1.6222 0.2847 0.49325 0.69425 0.90285 1.18745 1.1876V17.7065c-0.6184 0.35705 -1.10175 0.9082 -1.375 1.56795 -0.2733 0.65975 -0.32125 1.3912 -0.1364 2.08095 0.1848 0.6898 0.59205 1.2993 1.1586 1.73405 0.56655 0.4347 1.26065 0.67035 1.9748 0.67035 0.7141 0 1.40825 -0.23565 1.9748 -0.67035 0.5665 -0.43475 0.9738 -1.0442 1.1586 -1.73405 0.18485 -0.68975 0.1369 -1.4212 -0.1364 -2.08095 -0.27325 -0.65975 -0.7566 -1.2109 -1.37505 -1.56795V7.1019c0.4929 -0.2846 0.90225 -0.6938 1.18695 -1.1866 0.2847 -0.49275 0.43475 -1.0518 0.435 -1.62095ZM5.512 2.6724c0.3208 0 0.6344 0.0951 0.9011 0.27335 0.26675 0.1782 0.4746 0.43155 0.5974 0.7279 0.12275 0.2964 0.1549 0.6225 0.0923 0.9371 -0.06265 0.3147 -0.21705 0.6037 -0.4439 0.83055 -0.22685 0.2268 -0.51585 0.38125 -0.83045 0.4439 -0.31465 0.06255 -0.6408 0.03045 -0.93715 -0.0923 -0.2964 -0.1228 -0.5497 -0.3307 -0.7279 -0.5974 -0.17825 -0.26675 -0.27335 -0.58035 -0.27335 -0.90115 0 -0.43015 0.17085 -0.8427 0.47505 -1.1469 0.3042 -0.30415 0.71675 -0.47505 1.1469 -0.47505Zm0 19.4636c-0.3208 0 -0.6344 -0.0951 -0.9011 -0.27335 -0.26675 -0.1782 -0.47465 -0.4315 -0.5974 -0.7279 -0.12275 -0.2964 -0.1549 -0.6225 -0.0923 -0.93715 0.0626 -0.31465 0.21705 -0.60365 0.4439 -0.83045 0.22685 -0.22685 0.5158 -0.3813 0.83045 -0.44395 0.31465 -0.06255 0.6408 -0.0304 0.93715 0.0923 0.29635 0.1228 0.5497 0.3307 0.7279 0.5974 0.1782 0.26675 0.27335 0.58035 0.27335 0.9011 0 0.4302 -0.17085 0.8428 -0.47505 1.147 -0.3042 0.3041 -0.7167 0.475 -1.1469 0.475Z" stroke-width="0.5"></path>
  <path fill="#e3e3e3" d="M20.10995 17.7067v-10.371c-0.00135 -1.23625 -0.49305 -2.42165 -1.3673 -3.29585 -0.87425 -0.8742 -2.05955 -1.36595 -3.29585 -1.3673h-1.01375V1.0506c-0.00005 -0.16035 -0.04765 -0.31705 -0.13675 -0.45035 -0.08915 -0.1333 -0.2158 -0.2372 -0.3639 -0.29855 -0.14815 -0.06135 -0.31115 -0.0774 -0.46845 -0.04615s-0.30175 0.10845 -0.41515 0.2218l-3.24395 3.24395c-0.1519 0.15205 -0.2373 0.35825 -0.2373 0.57325 0 0.215 0.0854 0.4212 0.2373 0.57325l3.24395 3.24395c0.1134 0.11335 0.25785 0.1905 0.41515 0.22175 0.1573 0.0313 0.3203 0.0152 0.46845 -0.04615 0.1481 -0.0613 0.27475 -0.16525 0.3639 -0.2985 0.0891 -0.1333 0.1367 -0.29 0.13675 -0.4504V5.9165h1.01375c0.3764 0 0.73735 0.14955 1.0035 0.4157 0.2662 0.2661 0.41565 0.6271 0.41565 1.0035v10.37095c-0.6184 0.35715 -1.1017 0.9082 -1.375 1.56795 -0.27325 0.65975 -0.3212 1.3913 -0.13635 2.081 0.18485 0.6898 0.592 1.2993 1.15865 1.734 0.5665 0.4347 1.26065 0.6704 1.9747 0.6704 0.7141 0 1.40825 -0.2357 1.97485 -0.6704 0.5665 -0.4347 0.97375 -1.0442 1.1586 -1.734 0.1848 -0.6897 0.13685 -1.42125 -0.1364 -2.081 -0.2733 -0.65975 -0.75665 -1.2108 -1.37505 -1.56795Zm-1.622 4.42945c-0.32075 0 -0.63435 -0.0951 -0.9011 -0.27335 -0.2667 -0.1782 -0.4746 -0.4315 -0.5974 -0.7279 -0.1227 -0.2963 -0.15485 -0.62245 -0.0923 -0.93705 0.06265 -0.3147 0.2171 -0.6037 0.44395 -0.83055 0.2268 -0.2268 0.5158 -0.3813 0.83045 -0.4439 0.31465 -0.0625 0.64075 -0.03045 0.93715 0.09235 0.2964 0.1227 0.5497 0.33065 0.7279 0.59735 0.17825 0.26675 0.27335 0.5803 0.27335 0.90115 0 0.43015 -0.1709 0.8427 -0.475 1.1469 -0.3042 0.30415 -0.7168 0.475 -1.147 0.475Z" stroke-width="0.5"></path>
</svg>