<svg xmlns="http://www.w3.org/2000/svg" fill="none" viewBox="0 0 20 20" id="Git-Pull-Request--Streamline-Ionic-Filled" height="20" width="20">
  <desc>
    Git Pull Request Streamline Icon: https://streamlinehq.com
  </desc>
  <path fill="#000000" d="M7.296583333333334 3.5786249999999997c0.0002916666666666667 -0.47458333333333336 -0.124375 -0.9408750000000001 -0.36150000000000004 -1.352 -0.2370833333333333 -0.411125 -0.57825 -0.7525833333333334 -0.9891666666666667 -0.9900416666666667 -0.41091666666666665 -0.23745833333333333 -0.8770833333333333 -0.3625833333333333 -1.3516666666666668 -0.36275 -0.47458333333333336 -0.0001666666666666667 -0.9408333333333334 0.124625 -1.3519166666666669 0.3617916666666667C2.8312500000000003 1.4728333333333334 2.489875 1.8140416666666668 2.2525 2.225c-0.237375 0.4109583333333333 -0.362375 0.8771666666666667 -0.3624583333333333 1.3517500000000002 -0.00004166666666666667 0.47458333333333336 0.12483333333333332 0.9407916666666666 0.36208333333333337 1.3518333333333334 0.23725000000000002 0.4110416666666667 0.5785416666666667 0.752375 0.9895416666666667 0.9896666666666667V14.755416666666665c-0.5153333333333333 0.29754166666666665 -0.9181250000000001 0.7568333333333334 -1.1458333333333335 1.306625 -0.22775 0.5497916666666667 -0.2677083333333333 1.1593333333333333 -0.11366666666666667 1.7341250000000001 0.154 0.5748333333333333 0.493375 1.0827499999999999 0.9655000000000001 1.4450416666666668 0.472125 0.36225 1.0505416666666667 0.558625 1.6456666666666668 0.558625 0.5950833333333333 0 1.1735416666666667 -0.196375 1.6456666666666668 -0.558625 0.47208333333333335 -0.3622916666666667 0.8115 -0.8701666666666668 0.9655000000000001 -1.4450416666666668 0.15404166666666666 -0.5747916666666667 0.11408333333333333 -1.1843333333333335 -0.11366666666666667 -1.7341250000000001 -0.22770833333333335 -0.5497916666666667 -0.6305000000000001 -1.0090833333333336 -1.1458750000000002 -1.306625V5.91825c0.41075 -0.2371666666666667 0.7518750000000001 -0.5781666666666667 0.989125 -0.9888333333333335 0.23725000000000002 -0.410625 0.3622916666666667 -0.8765000000000001 0.3625 -1.3507916666666666ZM4.593333333333333 2.2270000000000003c0.2673333333333333 0 0.5286666666666666 0.07925 0.7509166666666667 0.22779166666666667 0.22229166666666667 0.1485 0.3955 0.35962500000000003 0.4978333333333334 0.6065833333333334 0.10229166666666667 0.247 0.12908333333333336 0.51875 0.07691666666666666 0.7809166666666667 -0.052208333333333336 0.26225 -0.180875 0.5030833333333333 -0.36991666666666667 0.692125 -0.18904166666666666 0.189 -0.42987500000000006 0.3177083333333333 -0.6920416666666667 0.36991666666666667 -0.2622083333333333 0.052125 -0.534 0.025375 -0.7809583333333334 -0.07691666666666666 -0.247 -0.10233333333333335 -0.45808333333333334 -0.27558333333333335 -0.6065833333333334 -0.4978333333333334 -0.14854166666666666 -0.22229166666666667 -0.22779166666666667 -0.483625 -0.22779166666666667 -0.7509583333333334 0 -0.3584583333333333 0.142375 -0.70225 0.395875 -0.9557500000000001 0.25350000000000006 -0.25345833333333334 0.5972916666666667 -0.395875 0.9557500000000001 -0.395875Zm0 16.21966666666667c-0.2673333333333333 0 -0.5286666666666666 -0.07925 -0.7509166666666667 -0.22779166666666667 -0.22229166666666667 -0.1485 -0.3955416666666667 -0.35958333333333337 -0.4978333333333334 -0.6065833333333334 -0.10229166666666667 -0.247 -0.12908333333333336 -0.51875 -0.07691666666666666 -0.7809583333333334 0.052166666666666674 -0.2622083333333333 0.180875 -0.5030416666666667 0.36991666666666667 -0.6920416666666667 0.18904166666666666 -0.18904166666666666 0.4298333333333334 -0.31775 0.6920416666666667 -0.36995833333333333 0.2622083333333333 -0.052125 0.534 -0.025333333333333333 0.7809583333333334 0.07691666666666666 0.24695833333333334 0.10233333333333335 0.45808333333333334 0.27558333333333335 0.6065833333333334 0.4978333333333334 0.1485 0.22229166666666667 0.22779166666666667 0.483625 0.22779166666666667 0.7509166666666667 0 0.35850000000000004 -0.142375 0.7023333333333334 -0.395875 0.9558333333333334 -0.25350000000000006 0.2534166666666667 -0.5972500000000001 0.3958333333333333 -0.9557500000000001 0.3958333333333333Z" stroke-width="0.4167"></path>
  <path fill="#000000" d="M16.75829166666667 14.755583333333336v-8.6425c-0.0011250000000000001 -1.0302083333333334 -0.410875 -2.018041666666667 -1.1394166666666667 -2.746541666666667 -0.7285416666666666 -0.7285 -1.716291666666667 -1.1382916666666667 -2.746541666666667 -1.1394166666666667h-0.8447916666666666V0.8755000000000001c-0.00004166666666666667 -0.133625 -0.03970833333333333 -0.2642083333333333 -0.11395833333333334 -0.37529166666666663 -0.07429166666666666 -0.11108333333333334 -0.17983333333333335 -0.19766666666666666 -0.30325 -0.24879166666666666 -0.12345833333333334 -0.051125000000000004 -0.25929166666666664 -0.0645 -0.39037499999999997 -0.03845833333333333s-0.25145833333333334 0.09037500000000001 -0.34595833333333337 0.18483333333333335l-2.703291666666667 2.703291666666667c-0.12658333333333335 0.12670833333333334 -0.19775 0.2985416666666667 -0.19775 0.4777083333333334 0 0.17916666666666667 0.07116666666666667 0.35100000000000003 0.19775 0.4777083333333334l2.703291666666667 2.703291666666667c0.0945 0.09445833333333334 0.21487500000000004 0.15875 0.34595833333333337 0.1847916666666667 0.13108333333333333 0.026083333333333337 0.26691666666666664 0.012666666666666666 0.39037499999999997 -0.03845833333333333 0.12341666666666667 -0.051083333333333335 0.22895833333333335 -0.13770833333333335 0.30325 -0.24875 0.07425 -0.11108333333333334 0.11391666666666667 -0.24166666666666667 0.11395833333333334 -0.37533333333333335V4.930416666666667h0.8447916666666666c0.3136666666666667 0 0.6144583333333333 0.124625 0.83625 0.3464166666666667 0.22183333333333333 0.22175 0.34637500000000004 0.5225833333333334 0.34637500000000004 0.83625v8.642458333333334c-0.5153333333333333 0.29762500000000003 -0.9180833333333333 0.7568333333333334 -1.1458333333333335 1.306625 -0.22770833333333335 0.5497916666666667 -0.26766666666666666 1.1594166666666668 -0.113625 1.7341666666666666 0.15404166666666666 0.5748333333333333 0.49333333333333335 1.0827499999999999 0.9655416666666666 1.445 0.47208333333333335 0.36225 1.0505416666666667 0.5586666666666666 1.6455833333333334 0.5586666666666666 0.5950833333333333 0 1.1735416666666667 -0.19641666666666666 1.6457083333333333 -0.5586666666666666 0.47208333333333335 -0.36225 0.8114583333333334 -0.8701666666666668 0.9655000000000001 -1.445 0.154 -0.57475 0.11404166666666667 -1.184375 -0.11366666666666667 -1.7341666666666666 -0.22775 -0.5497916666666667 -0.6305416666666668 -1.0090000000000001 -1.1458750000000002 -1.306625Zm-1.3516666666666668 3.6912083333333334c-0.26729166666666665 0 -0.528625 -0.07925 -0.7509166666666667 -0.22779166666666667 -0.22225 -0.1485 -0.3955 -0.35958333333333337 -0.4978333333333334 -0.6065833333333334 -0.10225000000000001 -0.24691666666666667 -0.12904166666666667 -0.5187083333333333 -0.07691666666666666 -0.7808750000000001 0.052208333333333336 -0.26225 0.18091666666666667 -0.5030833333333333 0.36995833333333333 -0.692125 0.189 -0.189 0.4298333333333334 -0.31775 0.6920416666666667 -0.36991666666666667 0.2622083333333333 -0.052083333333333336 0.5339583333333334 -0.025375 0.7809583333333334 0.07695833333333334 0.247 0.10225000000000001 0.45808333333333334 0.2755416666666667 0.6065833333333334 0.49779166666666674 0.14854166666666666 0.22229166666666667 0.22779166666666667 0.48358333333333337 0.22779166666666667 0.7509583333333334 0 0.3584583333333333 -0.14241666666666666 0.70225 -0.3958333333333333 0.9557500000000001 -0.25350000000000006 0.25345833333333334 -0.5973333333333334 0.3958333333333333 -0.9558333333333334 0.3958333333333333Z" stroke-width="0.4167"></path>
</svg>